<?xml version="1.0" encoding="UTF-8"?>
<svg version="1.1" viewBox="0 0 1200 1200" width="1200" height="1200" xmlns="http://www.w3.org/2000/svg">
<path transform="translate(853,40)" d="m0 0h3l3 141 1 69 1 40 1 83 1 40 1 62v66h21l49 2 40 3 36 4 43 7 36 8 11 3-4 4-23 16-45 30-25 16-26 16-24 14-27 15-29 15-24 12-33 15-38 16-37 14-40 14-42 13-52 14-47 11-55 11-50 8-49 6-45 4-34 2-27 1h-71l-45-2-50-4-35-4-23-5 2-4 4-5 8-11 13-16 11-14 12-14 11-14 13-15 9-11 11-13 9-11 11-13 9-11 11-13 11-14 13-16 11-14 13-16 11-14 11-13 8-10 7-9h2l4 34 7 70 1 7 31-14 9-146 1-16 3-8 7-8 13-15 12-14 13-15 9-10 9-11 11-12 7-8 12-14 11-12 9-11 13-14 9-11 14-15 9-11 16-17 7-8 9-9 7-8 16-17 60-60h2v42l-1 83-1 160-1 101 28-5h5l-1-61-1-35-2-126-3-183 14-14 8-7 10-10 8-7 15-14 8-7 13-12 14-11 15-10 17-8 24-7 22-4zm-286 228-7 112-12 172-2 33 18-4 3-1v-42l1-76v-194z" fill="#00528E"/>
<path transform="translate(853,40)" d="m0 0h3l3 141 1 69 1 40 1 83 1 40 1 62v66l-58 2-47 4-47 6-27 4h-3l-1-61-1-35-2-126-3-183 14-14 8-7 10-10 8-7 15-14 8-7 13-12 14-11 15-10 17-8 24-7 22-4z" fill="#63AD55"/>
<path transform="translate(650,176)" d="m0 0h2v42l-1 83-1 160v102l-55 11-26 6h-2l-1-6v-36l1-76v-176l-7 108-11 158-2 31-2 3-40 11-39 12-41 14-44 17-14 6h-2v-17l7-112 2-33 3-8 7-8 13-15 12-14 13-15 9-10 9-11 11-12 7-8 12-14 11-12 9-11 13-14 9-11 14-15 9-11 16-17 7-8 9-9 7-8 16-17z" fill="#63AD55"/>
<path transform="translate(864,541)" d="m0 0h21l49 2 40 3 36 4 43 7 36 8 11 3-4 4-23 16-45 30-25 16-26 16-24 14-27 15-29 15-24 12-33 15-38 16-37 14-40 14-42 13-52 14-47 11-55 11-50 8-49 6-45 4-34 2-27 1h-71l-45-2-50-4-35-4-23-5v-1h29l36-1 42-3 46-5 51-7 60-9 43-8 65-14 58-14 49-13 40-12 32-11 30-12 26-12 22-11 27-16 15-10 14-10 11-9 10-9 11-12 11-15 12-19 13-24 10-21z" fill="#4FBDEE"/>
<path transform="translate(944,34)" d="m0 0h13l24 2 3 3 4 8v22l-5 25-11 43-42 168-17 65-15 53-13 43-3 10-2 1 2-73 3-105 2-56 6-191 1-16z" fill="#64AD55"/>
<path transform="translate(15,903)" d="m0 0h98l13 4 8 4 10 8 7 10 4 13v12l-4 13-8 11 2 5 6 9 3 7 1 5v12l-4 13-8 11-10 8-11 5-14 3h-90l-8-3-4-4-2-9v-122l2-8 4-5zm25 28v34h65l7-3 5-5 2-4v-11l-4-6-8-5zm0 62v34h67l6-3 5-6 1-2v-10l-4-8-6-4-10-1z" fill="#01538F"/>
<path transform="translate(738,902)" d="m0 0 13 1 16 5 13 9 8 10 4 10 1 5v12l-4 13-8 11 2 5 4 5 4 8 2 8v12l-4 13-7 10-8 7-14 7-13 3h-90l-9-3-4-4-1-3-1-129 3-9 5-4 3-1zm-60 29v34h65l7-3 5-5 2-4v-11l-4-6-8-5zm0 62v34h67l6-3 5-6 2-5-1-8-5-8-5-3-6-1z" fill="#00528E"/>
<path transform="translate(394,903)" d="m0 0h204v145l-1 8h-21l-8-3-4-3-2-7v-105l-143 1v117h-21l-9-3-4-5-1-3v-132l3-6z" fill="#015490"/>
<path transform="translate(901,899)" d="m0 0h27l20 4 15 6 14 9 12 12 6 12 2 8v57l-3 12-6 10-7 8-13 9-15 7-14 4-14 2h-22l-17-3-19-7-14-9-9-8-7-11-3-8-1-6v-56l3-12 6-10 12-12 13-8 15-6zm7 28-14 3-10 4-9 7-6 9-1 11v43l4 10 9 8 10 5 12 3h24l12-3 13-7 7-8 2-4 1-10v-44l-3-8-7-8-10-6-13-4-8-1z" fill="#00538F"/>
<path transform="translate(1100,899)" d="m0 0h27l20 4 15 6 14 9 12 12 6 12 2 13v50l-3 14-7 11-11 11-14 8-12 5-11 3-14 2h-22l-17-3-17-6-12-7-11-9-8-11-4-9-1-6v-58l3-11 5-9 7-8 12-9 16-8 19-5zm7 28-14 3-10 4-8 6-5 6-2 4-1 13v34l1 11 6 9 9 7 13 5 6 1h24l12-3 13-7 7-8 2-4 1-9v-45l-4-10-9-8-10-5-11-3-7-1z" fill="#01538F"/>
<path transform="translate(258,902)" d="m0 0h18l12 4 8 7 8 17 18 41 13 29 24 54v2h-28l-8-3-5-5-8-17-6-13-2-3-70-1-2 6-11 24-6 12h-21l-9-3-2-4 1-7 13-31 13-29 20-45 10-23 7-7 9-4zm9 32-18 40-4 9v3h45l-1-5-18-40-3-7z" fill="#00538F"/>
<path transform="translate(319,549)" d="m0 0h2l4 34 7 70v8l-19 10-20 10-22 12-21 12-24 15-21 14-18 13-13 10-14 11-11 9-13 11-11 9-15 13-4 2 4-7 13-16 8-10 18-22 14-17 11-13 9-11 11-13 9-11 11-13 9-11 11-13 11-14 13-16 11-14 13-16 11-14 11-13 8-10z" fill="#64AD55"/>
<path transform="translate(476,960)" d="m0 0h30v113h-17l-8-3-3-2-1-3-1-36z" fill="#64AD55"/>
</svg>
